<svg width="1916" height="793" viewBox="0 0 1916 793" fill="none" xmlns="http://www.w3.org/2000/svg">
<path fill-rule="evenodd" clip-rule="evenodd" d="M-4 0H1916V772.078C1916 772.078 1544.22 680.911 1344.74 689.349C948.166 706.122 904.176 777.515 554.979 788.442C234.062 798.483 -4 715.219 -4 715.219V0Z" fill="url(#paint0_linear)"/>
<rect opacity="0.1" width="983.896" height="143.129" rx="71.5643" transform="matrix(0.882205 -0.470866 0.52971 0.848179 680.481 558.619)" fill="white"/>
<rect opacity="0.5" width="89.3115" height="10.7346" rx="5.36732" transform="matrix(0.882205 -0.470866 0.52971 0.848179 861.583 392.25)" fill="url(#paint1_linear)"/>
<rect opacity="0.5" width="74.4262" height="14.5687" rx="7.28437" transform="matrix(0.882205 -0.470866 0.52971 0.848179 708.677 500.44)" fill="url(#paint2_linear)"/>
<rect width="74.4262" height="14.5687" rx="7.28437" transform="matrix(0.882205 -0.470866 0.52971 0.848179 1004.36 691.083)" fill="url(#paint3_linear)"/>
<rect opacity="0.05" width="731.191" height="143.129" rx="71.5643" transform="matrix(0.882205 -0.470866 0.52971 0.848179 86.98 344.293)" fill="white"/>
<rect opacity="0.1" width="882.969" height="143.129" rx="71.5643" transform="matrix(0.882205 -0.470866 0.52971 0.848179 1061.22 612.736)" fill="white"/>
<rect opacity="0.05" width="731.191" height="143.129" rx="71.5643" transform="matrix(0.882205 -0.470866 0.52971 0.848179 845.147 599.419)" fill="white"/>
<path opacity="0.1" fill-rule="evenodd" clip-rule="evenodd" d="M-4 674.262C108.555 675.061 179.496 697.698 358.134 725.906C536.773 754.115 937.591 745.578 937.591 745.578C937.591 745.578 398.569 840.642 -4 738.889" fill="white"/>
<path opacity="0.1" fill-rule="evenodd" clip-rule="evenodd" d="M120.682 765.17C120.682 765.17 451.11 723.189 674.711 714.21C898.311 705.231 1212.09 722.394 1212.09 722.394C1212.09 722.394 1122.82 723.749 762.242 770.802C401.661 817.855 120.682 765.17 120.682 765.17Z" fill="white"/>
<path opacity="0.2" fill-rule="evenodd" clip-rule="evenodd" d="M1293.91 718.697C1399.28 699.409 1583.45 689.282 1782.1 708.773V777.753C1782.1 777.753 1469.38 723.245 1293.91 718.697Z" fill="white"/>
<path fill-rule="evenodd" clip-rule="evenodd" d="M1274.39 531.853H949.655C947.637 531.853 946 530.352 946 528.502C946 526.651 947.637 525.151 949.655 525.151H1274.39C1276.41 525.151 1278.04 526.651 1278.04 528.502C1278.04 530.352 1276.41 531.853 1274.39 531.853Z" fill="#FFCA00"/>
<path fill-rule="evenodd" clip-rule="evenodd" d="M1458.44 531.853H1297.38C1295.36 531.853 1293.73 530.352 1293.73 528.502C1293.73 526.651 1295.36 525.151 1297.38 525.151H1458.44C1460.45 525.151 1462.09 526.651 1462.09 528.502C1462.09 530.352 1460.45 531.853 1458.44 531.853Z" fill="#FFCA00"/>
<path fill-rule="evenodd" clip-rule="evenodd" d="M1313.14 233.593H1288.64C1271.77 233.593 1258.09 245.524 1258.09 260.15C1258.09 271.78 1266.74 281.726 1278.76 285.286V292.684L1286.45 286.71C1287.18 286.753 1287.9 286.859 1288.64 286.859H1313.14C1330.01 286.859 1343.68 274.852 1343.68 260.226C1343.68 245.6 1330.01 233.593 1313.14 233.593Z" fill="white"/>
<path fill-rule="evenodd" clip-rule="evenodd" d="M1252.91 337.764L1262.23 323.744L1274.52 328.535V362.286C1274.52 364.926 1272.94 367.381 1270.34 368.78C1264.43 371.969 1252.91 368.301 1252.91 362.286V337.764Z" fill="#FFCA00"/>
<path fill-rule="evenodd" clip-rule="evenodd" d="M1198.69 519.2L1194.98 526.018H1218.33C1217.61 523.47 1214.86 521.827 1211.98 522.224L1209.18 522.609C1207.23 522.609 1205.9 520.822 1206.65 519.2H1198.69Z" fill="white"/>
<path fill-rule="evenodd" clip-rule="evenodd" d="M1226.36 519.2L1222.65 526.018H1245.99C1245.28 523.47 1242.53 521.827 1239.64 522.224L1236.84 522.609C1234.89 522.609 1233.57 520.822 1234.32 519.2H1226.36Z" fill="white"/>
<path fill-rule="evenodd" clip-rule="evenodd" d="M1283.25 328.967C1285.48 323.946 1282.86 316.371 1276.18 312.232C1269.74 308.24 1261.08 308.411 1254.85 312.653L1253.82 313.352C1249.76 316.116 1247.26 320.274 1246.95 324.765L1246.56 339.242L1239.94 342.384L1245.54 359.351L1251.15 353.105L1260.1 343.412L1267.43 345.325C1272 346.741 1277.03 344.675 1278.71 340.694L1278.74 340.631L1280.14 337.313L1283.25 328.967Z" fill="#FBEFE1"/>
<path fill-rule="evenodd" clip-rule="evenodd" d="M1285.02 324.082L1285.73 323.872C1286.3 314.665 1278.37 306.679 1267.67 305.669C1255.57 304.528 1245 312.687 1245.13 323.11C1245.17 326.572 1246.26 335.866 1246.26 335.866L1257.63 323.747L1258.89 324.114C1267.36 326.594 1276.55 326.583 1285.02 324.082Z" fill="#FFCA00"/>
<path fill-rule="evenodd" clip-rule="evenodd" d="M1199.29 519.957L1196.31 497.517C1195.1 489.24 1195.41 473.431 1197.25 465.243L1199.36 455.796L1195.39 432.391C1194.32 426.068 1195.37 419.606 1198.41 413.795L1201.96 404.805H1242.39L1242.04 406.524C1240.46 414.294 1240.69 424.45 1242.71 432.141L1248.82 452.396C1249.62 455.055 1249.66 457.845 1248.93 460.519L1234.82 519.957H1226.88L1226.28 498.059C1225.75 483.707 1232.34 457.513 1232.34 457.513L1220.02 430.72L1207.23 519.957H1199.29Z" fill="#FA7564"/>
<path fill-rule="evenodd" clip-rule="evenodd" d="M1223.31 404.805H1242.19L1241.83 406.524C1240.21 414.294 1240.44 424.45 1242.51 432.141L1248.8 452.396C1249.63 455.055 1249.66 457.845 1248.91 460.519L1234.4 519.957H1226.24L1225.63 498.058C1225.08 483.707 1231.86 457.513 1231.86 457.513L1219.19 430.72L1223.31 404.805Z" fill="#FD8778"/>
<path fill-rule="evenodd" clip-rule="evenodd" d="M1280.88 355.318L1267.83 379.355L1264.79 355.422L1254.69 348.892L1250.7 353.384L1239.51 342.85H1223.09V342.684C1207.81 358.387 1200.52 378.508 1201.1 399.195L1201.04 404.53H1229.51L1250.46 419.957L1258.22 413.902L1244.81 396.32L1250.7 382.648L1256.51 376.141L1265.09 397.451L1279.22 394.85L1290.95 357.538L1280.88 355.318Z" fill="#1E389D"/>
<path fill-rule="evenodd" clip-rule="evenodd" d="M1291.26 357.078C1292.83 355.955 1294.08 354.487 1294.87 352.808L1296 350.435C1296.46 348.755 1295.7 346.994 1294.1 346.07L1289.24 343.24L1291.28 337.109C1291.58 336.208 1290.94 335.27 1289.93 335.127C1289.21 335.025 1288.51 335.351 1288.18 335.938L1284.17 342.99L1283.77 343.567C1282.98 344.722 1282.38 345.977 1281.99 347.292C1281.49 348.938 1281.33 350.653 1281.5 352.353L1281.77 354.875L1291.26 357.078Z" fill="#FBEFE1"/>
<path fill-rule="evenodd" clip-rule="evenodd" d="M1421.82 515.297H1395.94V471.929H1420.34L1428.12 409.91C1429.71 400.377 1424.52 390.911 1414.99 386.059C1406.54 381.755 1395.81 381.755 1387.38 386.096L1373.49 393.082V454.264L1354.06 471.929H1386.49V515.297H1360.65C1357.11 515.297 1354.24 517.726 1354.24 520.819C1354.24 523.913 1357.11 526.598 1360.65 526.598C1364.06 526.598 1366.85 523.558 1367.04 521.493H1384.84C1385.03 523.558 1387.81 526.775 1391.23 526.775C1394.65 526.775 1397.43 523.558 1397.62 521.493H1415.42C1415.61 523.558 1418.4 526.558 1421.82 526.558C1425.35 526.558 1428.22 524.022 1428.22 520.928C1428.22 517.834 1425.35 515.297 1421.82 515.297Z" fill="black"/>
<path fill-rule="evenodd" clip-rule="evenodd" d="M1348.62 519.2L1352.33 526.018H1328.98C1329.7 523.47 1332.45 521.827 1335.33 522.224L1338.13 522.609C1340.08 522.609 1341.41 520.822 1340.66 519.2H1348.62Z" fill="white"/>
<path fill-rule="evenodd" clip-rule="evenodd" d="M1327 519.2L1330.71 526.018H1307.37C1308.09 523.47 1310.83 521.827 1313.72 522.224L1316.52 522.609C1318.47 522.609 1319.79 520.822 1319.04 519.2H1327Z" fill="white"/>
<path fill-rule="evenodd" clip-rule="evenodd" d="M1329.95 520.715L1343.12 471.289L1368.51 460.114H1383.92L1396.42 443.442L1365.02 446.472L1331.82 457.615C1328.35 458.78 1325.85 461.446 1325.23 464.633L1315.15 520.715H1329.95Z" fill="#1E389D"/>
<path fill-rule="evenodd" clip-rule="evenodd" d="M1374.41 446.702L1347.9 458.802C1344.75 460.242 1342.64 462.962 1342.3 466.039L1336.77 520.715H1350.6L1362.73 466.932L1396.54 460.115C1405.54 460.115 1412.84 453.781 1412.84 445.968V443.442L1374.41 446.702Z" fill="#212293"/>
<path fill-rule="evenodd" clip-rule="evenodd" d="M1373.18 386.884H1399.25C1406.05 386.884 1412.32 390.11 1415.67 395.33L1432.73 417.673V452.533H1420.62V421.998L1411.98 413.855V446.426H1365.3L1369.24 404.904L1350.52 420.281C1346.44 423.957 1339.48 423.034 1336.81 418.462L1320.34 390.334L1328.56 385.866L1343.1 406.73L1359.75 391.841C1363.3 388.67 1368.14 386.884 1373.18 386.884Z" fill="#FA7564"/>
<path fill-rule="evenodd" clip-rule="evenodd" d="M1366.39 358.52C1366.29 353.043 1371.7 346.628 1379.51 344.743C1387.05 342.925 1395.02 345.765 1399.13 351.734L1399.81 352.719C1402.49 356.608 1403.18 361.347 1401.71 365.726L1396.55 379.441L1396.19 387.573L1387.32 390.411L1381.31 387.573L1381.65 378.813L1374.81 378.795C1370.01 378.734 1366.16 375.212 1366.16 370.895V370.827L1366.16 365.012L1366.39 358.52Z" fill="#FBEFE1"/>
<path fill-rule="evenodd" clip-rule="evenodd" d="M1389.5 379.805V366.169H1366.16L1366.16 370.232V370.297C1366.16 374.381 1370.03 377.714 1374.86 377.772L1381.74 377.789L1381.66 379.805H1389.5Z" fill="black"/>
<path fill-rule="evenodd" clip-rule="evenodd" d="M1391.44 355.554C1391.44 355.554 1369.68 355.849 1364.43 346.068C1364.43 346.068 1377.46 338.222 1391.35 341.011C1403.18 343.594 1409.8 354.626 1405.45 364.581C1404 367.888 1401.51 373.438 1398.73 377.532V365.327L1391.62 364.159L1390.49 366.844H1387.15L1391.44 355.554Z" fill="black"/>
<path fill-rule="evenodd" clip-rule="evenodd" d="M1420.62 468.442C1419.67 468.442 1418.9 467.699 1418.9 466.782V459.505L1422.35 457.078V466.782C1422.35 467.699 1421.58 468.442 1420.62 468.442Z" fill="#FBEFE1"/>
<path fill-rule="evenodd" clip-rule="evenodd" d="M1424.14 469.199C1423.22 469.199 1422.47 468.51 1422.46 467.654L1422.35 457.078H1425.7L1425.81 467.624C1425.82 468.491 1425.07 469.199 1424.14 469.199Z" fill="#FBEFE1"/>
<path fill-rule="evenodd" clip-rule="evenodd" d="M1429.27 468.442C1428.31 468.442 1427.54 467.699 1427.54 466.782V457.078H1431V466.782C1431 467.699 1430.22 468.442 1429.27 468.442Z" fill="#FBEFE1"/>
<path fill-rule="evenodd" clip-rule="evenodd" d="M1432.42 463.896H1431.31C1430.66 463.896 1430.13 463.389 1430.13 462.763V457.078H1433.59V462.763C1433.59 463.389 1433.07 463.896 1432.42 463.896Z" fill="#FBEFE1"/>
<path fill-rule="evenodd" clip-rule="evenodd" d="M1433.59 458.069V454.826L1432.21 451.986L1422.64 451.775L1422.48 451.903C1420.2 453.819 1419.17 456.497 1419.17 459.327L1418.9 459.351L1433.59 458.069Z" fill="#FBEFE1"/>
<path fill-rule="evenodd" clip-rule="evenodd" d="M1458.66 438.896H1395.69H1233.02V448.207H1243.65L1235.32 535.109H1239.35L1261.04 448.207H1270.34L1262.97 525.798H1266.47L1285.61 448.207H1370.6L1392.29 535.109H1396.32L1387.99 448.207H1395.69H1429.81L1448.96 525.798H1452.46L1445.09 448.207H1458.66V438.896Z" fill="white"/>
<path fill-rule="evenodd" clip-rule="evenodd" d="M1046.61 515.3H1020.73V471.942H1053.2L1033.74 454.28V393.113L1019.84 386.107C1011.41 381.767 1000.8 381.744 992.347 386.047C982.813 390.898 977.541 400.407 979.134 409.937L986.853 471.942H1011.27V515.3H985.375C981.831 515.3 978.959 517.728 978.959 520.821C978.959 523.914 981.831 526.598 985.375 526.598C988.795 526.598 991.581 523.559 991.772 521.494H1009.59C1009.78 523.559 1012.57 526.775 1015.99 526.775C1019.41 526.775 1022.2 523.559 1022.39 521.494H1040.21C1040.4 523.559 1043.19 526.558 1046.61 526.558C1050.15 526.558 1053.02 524.022 1053.02 520.929C1053.02 517.836 1050.15 515.3 1046.61 515.3Z" fill="black"/>
<path fill-rule="evenodd" clip-rule="evenodd" d="M1058.64 519.2L1054.93 526.018H1078.27C1077.56 523.47 1074.81 521.827 1071.92 522.224L1069.13 522.609C1067.18 522.609 1065.85 520.822 1066.6 519.2H1058.64Z" fill="black"/>
<path fill-rule="evenodd" clip-rule="evenodd" d="M1080.25 519.2L1076.54 526.018H1099.89C1099.17 523.47 1096.42 521.827 1093.54 522.224L1090.74 522.609C1088.79 522.609 1087.46 520.822 1088.21 519.2H1080.25Z" fill="black"/>
<path fill-rule="evenodd" clip-rule="evenodd" d="M1077.31 520.715L1064.14 471.289L1038.75 460.114H1023.34L1010.84 443.442L1042.24 446.472L1075.44 457.615C1078.9 458.78 1081.41 461.446 1082.03 464.633L1092.1 520.715H1077.31Z" fill="#1E389D"/>
<path fill-rule="evenodd" clip-rule="evenodd" d="M1031.98 446.702L1058.5 458.802C1061.65 460.242 1063.75 462.962 1064.09 466.039L1069.63 520.715H1055.8L1043.66 466.932L1009.85 460.115C1000.85 460.115 993.549 453.781 993.549 445.968V443.442L1031.98 446.702Z" fill="#212293"/>
<path fill-rule="evenodd" clip-rule="evenodd" d="M1033.41 386.872H1007.01C1000.13 386.872 993.782 390.06 990.388 395.219L970.763 420.671C967.871 424.421 969.562 429.511 974.32 431.373L1001.65 442.064L1006.88 431.731L988.88 424.942C987.089 424.265 986.495 422.327 987.667 420.975L994.128 413.526V445.715H1041.4L1037.4 404.68L1056.36 419.877C1060.49 423.51 1067.53 422.598 1070.24 418.079L1086.92 390.282L1078.6 385.866L1063.87 406.485L1047.01 391.771C1043.42 388.636 1038.52 386.872 1033.41 386.872Z" fill="#FA7564"/>
<path fill-rule="evenodd" clip-rule="evenodd" d="M1039.13 358.52C1039.23 353.043 1033.83 346.628 1026.02 344.743C1018.48 342.925 1010.51 345.765 1006.39 351.734L1005.72 352.719C1003.04 356.608 1002.35 361.347 1003.82 365.726L1008.98 379.441L1009.33 387.573L1018.21 390.411L1024.21 387.573L1023.87 378.813L1030.72 378.795C1035.51 378.734 1039.37 375.212 1039.37 370.895V370.827L1039.37 365.012L1039.13 358.52Z" fill="#FBEFE1"/>
<path fill-rule="evenodd" clip-rule="evenodd" d="M1042.83 343.223C1042.83 343.223 1029.13 337.653 1015.53 340.429C1013.06 340.977 1010.84 341.927 1008.88 343.15L1006.08 340.351V345.263C1000.89 350.01 998.912 357.189 1001.8 363.885C1003.21 367.176 1006.08 372.7 1008.43 376.775V364.628L1015.33 363.465L1015.47 354.902C1015.47 354.902 1028.44 355.517 1036.52 350.564L1039.18 355.356C1039.18 355.356 1037.39 346.224 1042.83 343.223Z" fill="black"/>
<path fill-rule="evenodd" clip-rule="evenodd" d="M1011.7 427.533C1011.7 426.696 1010.86 426.017 1009.81 426.017H1001.51L998.736 429.048H1009.81C1010.86 429.048 1011.7 428.369 1011.7 427.533Z" fill="#FBEFE1"/>
<path fill-rule="evenodd" clip-rule="evenodd" d="M1012.57 431.368C1012.57 430.563 1011.78 429.909 1010.81 429.901L998.736 429.805V432.74L1010.77 432.836C1011.76 432.843 1012.57 432.185 1012.57 431.368Z" fill="#FBEFE1"/>
<path fill-rule="evenodd" clip-rule="evenodd" d="M1011.7 435.108C1011.7 434.272 1010.86 433.593 1009.81 433.593H998.736V436.624H1009.81C1010.86 436.624 1011.7 435.945 1011.7 435.108Z" fill="#FBEFE1"/>
<path fill-rule="evenodd" clip-rule="evenodd" d="M1019.48 440.9V439.923C1019.48 439.355 1018.91 438.896 1018.19 438.896H1011.7V441.927H1018.19C1018.91 441.927 1019.48 441.468 1019.48 440.9Z" fill="#FF63BE"/>
<path fill-rule="evenodd" clip-rule="evenodd" d="M1000.73 438.896H997.031L993.789 437.682L993.549 429.297L993.696 429.163C995.882 427.158 998.937 426.258 1002.17 426.258L1002.19 426.017L1000.73 438.896Z" fill="#FBEFE1"/>
<path fill-rule="evenodd" clip-rule="evenodd" d="M1173.37 438.896H1010.7H947.729V448.207H961.305L953.933 525.798H957.437L976.581 448.207H1010.7H1018.4L1010.07 535.109H1014.1L1035.79 448.207H1120.78L1139.92 525.798H1143.43L1136.06 448.207H1145.35L1167.04 535.109H1171.07L1162.74 448.207H1173.37V438.896Z" fill="white"/>
<path fill-rule="evenodd" clip-rule="evenodd" d="M1064.07 427.533H1154.25C1157.37 427.533 1160.05 425.616 1160.67 422.95L1171.51 376.042C1172.33 372.504 1169.23 369.199 1165.1 369.199H1074.91C1071.79 369.199 1069.11 371.116 1068.49 373.782L1057.66 420.69C1056.84 424.228 1059.94 427.533 1064.07 427.533Z" fill="white"/>
<path fill-rule="evenodd" clip-rule="evenodd" d="M1130 403.29H1102.49L1113.75 429.002C1114.95 431.748 1112.66 434.707 1109.34 434.707H1092.1V438.896H1131.27C1138.44 438.896 1143.32 432.469 1140.63 426.583L1130 403.29Z" fill="#B3D2EC"/>
<path fill-rule="evenodd" clip-rule="evenodd" d="M1360.24 265.411H1331.44C1312.9 265.411 1297.86 278.223 1297.86 294.32V294.236C1297.86 310.334 1312.9 323.299 1331.44 323.299H1360.24C1360.87 323.299 1361.5 323.246 1362.12 323.216L1370.53 329.805V321.831C1384.04 318.06 1393.82 307.064 1393.82 294.082V294.32C1393.82 278.223 1378.79 265.411 1360.24 265.411Z" fill="#FFCA00"/>
<path fill-rule="evenodd" clip-rule="evenodd" d="M1341.46 427.533H1251.27C1248.16 427.533 1245.47 425.616 1244.86 422.95L1234.02 376.042C1233.2 372.504 1236.3 369.199 1240.43 369.199H1330.62C1333.73 369.199 1336.42 371.116 1337.03 373.782L1347.87 420.69C1348.69 424.228 1345.59 427.533 1341.46 427.533Z" fill="white"/>
<path fill-rule="evenodd" clip-rule="evenodd" d="M1276.26 403.29H1303.46L1292.33 429.002C1291.14 431.748 1293.4 434.707 1296.69 434.707H1312.56V438.896H1275.01C1267.92 438.896 1263.09 432.469 1265.75 426.583L1276.26 403.29Z" fill="#B3D2EC"/>
<defs>
<linearGradient id="paint0_linear" x1="-949.879" y1="394.761" x2="-388.564" y2="1739.72" gradientUnits="userSpaceOnUse">
<stop stop-color="#250E8A"/>
<stop offset="1" stop-color="#00F9F7"/>
</linearGradient>
<linearGradient id="paint1_linear" x1="89.3115" y1="0" x2="0" y2="0" gradientUnits="userSpaceOnUse">
<stop stop-color="white" stop-opacity="0.01"/>
<stop offset="1" stop-color="#06CCE2"/>
<stop offset="1" stop-color="white"/>
</linearGradient>
<linearGradient id="paint2_linear" x1="74.4262" y1="0" x2="0" y2="0" gradientUnits="userSpaceOnUse">
<stop stop-color="white" stop-opacity="0.01"/>
<stop offset="1" stop-color="#06CCE2"/>
<stop offset="1" stop-color="white"/>
</linearGradient>
<linearGradient id="paint3_linear" x1="74.4262" y1="0" x2="0" y2="0" gradientUnits="userSpaceOnUse">
<stop stop-color="white" stop-opacity="0.01"/>
<stop offset="1" stop-color="#06CCE2"/>
<stop offset="1" stop-color="white"/>
</linearGradient>
</defs>
</svg>
